<svg xmlns="http://www.w3.org/2000/svg" width="96" height="96" viewBox="0 0 96 96">
  <g fill="none" fill-rule="evenodd">
    <rect width="96" height="96" fill="#EFF8FF"/>
    <g fill-rule="nonzero" transform="translate(2 -10)">
      <circle cx="46.428" cy="46.5" r="46.049" fill="#EFF8FF"/>
      <circle cx="46.049" cy="41.534" r="13.544" fill="#74D2FB"/>
      <path fill="#0066F5" d="M27.7374757 57.3259223C27.4033981 57.4794175 27.0783495 57.6509709 26.753301 57.8134951L12.8935922 78.264466C13.7423301 79.1673786 14.6181553 79.9980583 15.5300971 80.8197087L31.2498058 57.6148544C30.2086566 56.9151034 28.8789809 56.8057213 27.7374757 57.3259223zM70.9418447 60.1971845L49.0823301 92.4582524C50.6711672 92.3550865 52.2534604 92.1682252 53.8226214 91.8984466L73.9214563 62.237767C72.9553398 61.524466 71.9621359 60.8382524 70.9418447 60.1971845zM75.3570874 63.3393204L56.3417476 91.4018447C58.1786335 90.9881578 59.9879631 90.4604366 61.7592233 89.8217476L78.0929126 65.7049515C77.2351456 64.883301 76.3051456 64.1067961 75.3570874 63.3393204zM66.1473786 57.6148544L42.5813592 92.3950485C43.782233 92.4853398 44.9831068 92.5485437 46.1930097 92.5485437L46.8521359 92.5485437 69.3707767 59.3123301C68.3233981 58.6893204 67.248932 58.1295146 66.1473786 57.6148544zM14.1757282 66.7162136L9.2638835 73.9395146C10.0223301 74.9507767 10.8078641 75.9349515 11.6385437 76.8739806L23.3764078 59.6193204C20.0235591 61.5890473 16.9323106 63.9734647 14.1757282 66.7162136zM60.8382524 58.8337864C59.29655 61.438617 57.1226946 63.6124723 54.5178641 65.1541748L36.6221359 91.5643689C37.913301 91.8352427 39.2134951 92.0790291 40.5317476 92.2415534L64.3686408 57.0279612C62.944949 56.9133931 61.5785499 57.6123185 60.8382524 58.8337864zM40.7665049 66.102233L26.0129126 87.8714563C27.114466 88.4132039 28.2250485 88.9098058 29.3717476 89.3612621L44.4503883 67.1134951C43.1862304 66.9257683 41.9493342 66.5862282 40.7665049 66.102233zM32.5048544 58.9421359L16.884466 81.9934951C17.7873786 82.77 18.7625243 83.5013592 19.7557282 84.1966019L34.8163107 61.9668932C33.9396282 61.0444115 33.1646877 60.0303292 32.5048544 58.9421359zM46.644466 67.2669903L46.5270874 67.2669903 31.1233981 90.0023301C32.3062136 90.4086408 33.5070874 90.7878641 34.7350485 91.1038835L51.3937864 66.5085437C49.8603685 67.0093487 48.2575914 67.2653055 46.644466 67.2669903L46.644466 67.2669903zM79.4563107 67.0051456L64.8020388 88.6299029C67.2274112 87.5603668 69.553875 86.279301 71.754466 84.8015534L81.9573786 69.75C81.126699 68.8019417 80.2869903 67.89 79.4563107 67.0051456zM36.1616505 63.2038835L21.2816505 85.198835C22.2929126 85.8579612 23.3312621 86.4719417 24.3876699 87.0046602L39.1232039 65.2625243C38.0609281 64.6911938 37.0673164 64.0005124 36.1616505 63.2038835zM84.1424272 72.5851456C83.8083495 72.1156311 83.4471845 71.682233 83.1040777 71.2307767L76.2148544 81.3885437C79.2218366 78.8040027 81.8859681 75.8455424 84.1424272 72.5851456L84.1424272 72.5851456z"/>
      <path fill="#00419E" d="M8.7131068 73.2262136C8.89368932 73.4790291 9.08330097 73.7137864 9.2638835 73.9575728L14.1757282 66.7342718C12.1611219 68.7275381 10.3326626 70.9005336 8.7131068 73.2262136L8.7131068 73.2262136zM23.3312621 59.6373786L11.5933981 76.8920388C11.9997087 77.3615534 12.4240777 77.7949515 12.8484466 78.264466L26.753301 57.7864078C25.5795146 58.373301 24.4418447 58.9872816 23.3312621 59.6373786zM32.5048544 58.8337864C32.1995727 58.3406937 31.7857608 57.9237936 31.2949515 57.6148544L15.5300971 80.8197087C15.9815534 81.2260194 16.4330097 81.6142718 16.9115534 81.9934951L32.5048544 58.9421359 32.5048544 58.8337864zM34.8433981 61.9668932L19.7828155 84.1966019C20.2703883 84.5397087 20.7760194 84.8737864 21.2816505 85.198835L36.1616505 63.2038835C35.699169 62.8168428 35.2590428 62.4038476 34.8433981 61.9668932L34.8433981 61.9668932zM39.1232039 65.3076699L24.3786408 87.0498058C24.9203883 87.3387379 25.4621359 87.6096117 26.0038835 87.8714563L40.7574757 66.102233C40.198264 65.8682026 39.6526465 65.60293 39.1232039 65.3076699zM44.4503883 67.1134951L29.3717476 89.3883495C29.9496117 89.6140777 30.5274757 89.8217476 31.1233981 90.0294175L46.5270874 67.2940777C45.8318699 67.2753988 45.1383952 67.2150966 44.4503883 67.1134951L44.4503883 67.1134951zM51.3937864 66.5085437L34.7350485 91.1038835C35.3580583 91.2573786 35.9900971 91.3928155 36.6221359 91.5282524L54.5178641 65.1180583C53.5305289 65.6944852 52.4828937 66.1607736 51.3937864 66.5085437L51.3937864 66.5085437zM65.5514563 57.3259223C65.1780268 57.155615 64.77776 57.051729 64.3686408 57.018932L40.5317476 92.2325243C41.208932 92.3137864 41.8951456 92.3679612 42.5813592 92.4221359L66.1473786 57.6419417 65.5514563 57.3259223zM69.3707767 59.2942718L46.8521359 92.5304854C47.6015534 92.5304854 48.3509709 92.5304854 49.0823301 92.4582524L70.9418447 60.1971845C70.4271845 59.881165 69.894466 59.592233 69.3707767 59.2942718zM73.9214563 62.237767L53.8226214 91.8984466C54.6713592 91.7539806 55.511068 91.5914563 56.3417476 91.4018447L75.3570874 63.3393204C74.8875728 62.9691262 74.4090291 62.598932 73.9214563 62.237767zM78.1109709 65.7049515L61.7772816 89.8217476C62.7885437 89.4605825 63.7907767 89.063301 64.7659223 88.6299029L79.4563107 67.0051456C78.9867961 66.5717476 78.5533981 66.1293204 78.1109709 65.7049515zM83.0679612 71.2307767C82.6797087 70.7251456 82.2914563 70.2285437 81.8851456 69.75L71.682233 84.8015534C73.2573168 83.7598881 74.7651619 82.6199572 76.1967961 81.3885437L83.0679612 71.2307767z"/>
      <path fill="#74D2FB" d="M61.3980583,72.9101942 L69.5242718,72.9101942 L69.5242718,76.7475728 C69.5242718,78.7422323 67.9072808,80.3592233 65.9126214,80.3592233 L65.0097087,80.3592233 C63.0150493,80.3592233 61.3980583,78.7422323 61.3980583,76.7475728 L61.3980583,72.9192233 L61.3980583,72.9101942 Z"/>
    </g>
  </g>
</svg>
