<svg id="Layer_1" data-name="Layer 1" xmlns="http://www.w3.org/2000/svg" xmlns:xlink="http://www.w3.org/1999/xlink" viewBox="0 0 620 620"><defs><clipPath id="clip-path"><circle id="SVGID" cx="310.03" cy="310" r="310" style="fill:none"/></clipPath><pattern id="Curved-Yellow-wBG" data-name="Curved-Yellow-wBG" width="22.24" height="24.72" patternTransform="matrix(6.72, 0, 0, -6.72, -356.62, 368.21)" patternUnits="userSpaceOnUse" viewBox="0 0 22.24 24.72"><rect width="22.24" height="24.72" style="fill:none"/><rect width="22.24" height="24.72" style="fill:none"/><rect x="16.68" width="11.12" height="24.72" style="fill:#fdf8e4"/><polygon points="16.68 24.37 16.68 24.06 16.68 24.06 16.68 24.37 16.68 24.37" style="fill:#fdeb92"/><polygon points="16.68 0.66 16.68 0.35 16.68 0.35 16.68 0.66 16.68 0.66" style="fill:#fdeb92"/><path d="M27.8,2.51V2h0a6.43,6.43,0,0,0-1.11-1,2.3,2.3,0,0,1,1.1-.32V.35a2.61,2.61,0,0,0-1.38.43,2.44,2.44,0,0,0-2.78,0,2.44,2.44,0,0,0-2.78,0A2.67,2.67,0,0,0,19.46.35H19.4A3.25,3.25,0,0,0,18,.74a2.5,2.5,0,0,0-1.3-.39V.66a2.24,2.24,0,0,1,1,.26,3.57,3.57,0,0,0-1,1.06v.54a15.88,15.88,0,0,1,1.21,1.85c-.21.39-.33.66-.35.7l-.86,1.65v.67l1.21,2.32L16.68,12v.66L17.89,15l-1.21,2.32V18l.86,1.65s.15.31.35.69a15.19,15.19,0,0,1-1.21,1.86v.5a4.43,4.43,0,0,0,.75.81l.34.23a2.23,2.23,0,0,1-1.09.32v.31a2.69,2.69,0,0,0,1.4-.44,2.72,2.72,0,0,0,1.39.44h0a2.67,2.67,0,0,0,1.4-.42,2.46,2.46,0,0,0,2.76,0,2.47,2.47,0,0,0,2.78,0,2.61,2.61,0,0,0,1.38.43v-.31a2.3,2.3,0,0,1-1.1-.32,6.45,6.45,0,0,0,1.1-1h0V22.2h0a14.47,14.47,0,0,1-1.21-1.86c.21-.38.33-.65.35-.7L27.8,18h0v-.67h0L26.58,15l1.21-2.32h0V12h0L26.58,9.71l1.21-2.32h0V6.72h0l-.86-1.65s-.14-.31-.35-.7a15.19,15.19,0,0,1,1.21-1.86ZM26.41,9.37,25.19,7.05l1-1.84a4.74,4.74,0,0,1,.25-.5c.15.29.24.48.24.49l1,1.85Zm-5.56,5.31-1.22-2.32L20.85,10l1.21,2.32Zm1.39-2L23.45,15l-1.21,2.32L21,15ZM21,9.71l1.22-2.32,1.21,2.32L22.24,12Zm2.61.33,1.21,2.32-1.21,2.32-1.22-2.32Zm.17-.33L25,7.39l1.21,2.32L25,12Zm1.22,3L26.23,15,25,17.33,23.8,15Zm.86,7s.14.31.35.69A14.47,14.47,0,0,1,25,22.2a13.9,13.9,0,0,1-1.21-1.84c.2-.4.33-.67.34-.72L25,18ZM23.63,20c-.15-.3-.25-.49-.25-.5l-1-1.86,1.22-2.32,1.21,2.32-1,1.85s-.1.21-.25.51Zm-.17.34a12.94,12.94,0,0,1-1.2,1.87A13.38,13.38,0,0,1,21,20.34c.21-.38.33-.65.35-.7L22.24,18l.86,1.65s.15.32.36.71ZM20.85,20c-.16-.29-.24-.48-.25-.49l-1-1.86,1.22-2.31,1.21,2.31-1,1.85s-.1.2-.25.5Zm-.18.33a14.47,14.47,0,0,1-1.21,1.86,13,13,0,0,1-1.22-1.86c.21-.38.33-.65.35-.7L19.46,18l.86,1.65S20.47,20,20.67,20.34Zm-1.21-3L18.24,15l1.22-2.32L20.67,15Zm0-5.3L18.24,9.71l1.22-2.32,1.21,2.32Zm0-5.31-.87-1.65s-.14-.31-.35-.7a14.18,14.18,0,0,1,1.22-1.86,14.58,14.58,0,0,1,1.21,1.87c-.21.38-.33.65-.35.69Zm1.39-2c.15.29.24.48.24.49l1,1.85L20.85,9.37,19.63,7.05l1-1.84A4.74,4.74,0,0,1,20.85,4.71ZM21,4.38a13.64,13.64,0,0,1,1.22-1.87,15.19,15.19,0,0,1,1.21,1.86c-.21.39-.33.66-.35.7l-.86,1.65-.87-1.65C21.35,5,21.23,4.76,21,4.38Zm2.61.33c.15.29.24.48.24.49l1,1.85L23.63,9.37,22.41,7.05l1-1.84A4.74,4.74,0,0,1,23.63,4.71Zm.17-.34A14.18,14.18,0,0,1,25,2.51a15.19,15.19,0,0,1,1.21,1.86c-.21.39-.33.66-.35.7L25,6.72l-.87-1.65C24.13,5,24,4.76,23.8,4.37Zm2.61,10.31-1.22-2.32L26.41,10l1.21,2.32Zm0,5.33a5.34,5.34,0,0,1-.25-.49l-1-1.86,1.22-2.32,1.21,2.32-1,1.85S26.56,19.72,26.41,20Zm-1.19,2.44a14.15,14.15,0,0,0,1.19-1.78,13.07,13.07,0,0,0,1.18,1.78,5.91,5.91,0,0,1-1.18,1.11A5.71,5.71,0,0,1,25.22,22.45Zm-1.31,1.29a6.9,6.9,0,0,0,1.11-1,6.45,6.45,0,0,0,1.1,1,2.05,2.05,0,0,1-2.21,0Zm-1.44-1.26a12.52,12.52,0,0,0,1.17-1.79,12.8,12.8,0,0,0,1.17,1.76,5.91,5.91,0,0,1-1.18,1.11A5.42,5.42,0,0,1,22.47,22.48Zm-1.31,1.28a6.34,6.34,0,0,0,1.1-1,6.91,6.91,0,0,0,1.08,1,2,2,0,0,1-2.18,0Zm-.29-.18a6.17,6.17,0,0,1-1.21-1.13,14.15,14.15,0,0,0,1.19-1.78,12.68,12.68,0,0,0,1.21,1.81,6.2,6.2,0,0,1-1.19,1.1Zm-2.51.16a7.28,7.28,0,0,0,1.1-1,6.25,6.25,0,0,0,1.12,1.06,2.48,2.48,0,0,1-1.12.31A2.46,2.46,0,0,1,18.36,23.74Zm-.29-3.07a13.07,13.07,0,0,0,1.18,1.78,6,6,0,0,1-1.19,1.12c-.15-.1-.3-.2-.44-.31a3.75,3.75,0,0,1-.74-.8A15,15,0,0,0,18.07,20.67Zm0-5.33,1.21,2.32-1,1.85s-.1.21-.25.5c-.16-.29-.24-.48-.25-.49l-1-1.86Zm0-5.3,1.21,2.32-1.21,2.32-1.22-2.32Zm0-5.33c.15.29.24.48.24.49l1,1.85L18.07,9.37,16.85,7.05l1-1.84A4.74,4.74,0,0,1,18.07,4.71Zm1.18-2.44a13.07,13.07,0,0,0-1.18,1.78,13.41,13.41,0,0,0-1.2-1.8A3.33,3.33,0,0,1,18,1.09,5.94,5.94,0,0,1,19.25,2.27ZM20.56,1a6.39,6.39,0,0,0-1.1,1A6.79,6.79,0,0,0,18.28.93,3,3,0,0,1,19.45.66,2.3,2.3,0,0,1,20.56,1ZM22,2.27a13.07,13.07,0,0,0-1.18,1.78,14.15,14.15,0,0,0-1.19-1.78,5.91,5.91,0,0,1,1.18-1.11A5.71,5.71,0,0,1,22,2.27ZM23.34,1a6,6,0,0,0-1.1,1,6.43,6.43,0,0,0-1.11-1A2.05,2.05,0,0,1,23.34,1Zm1.47,1.29a13.07,13.07,0,0,0-1.18,1.78,14.15,14.15,0,0,0-1.19-1.78,6,6,0,0,1,1.19-1.12A6.27,6.27,0,0,1,24.81,2.27ZM26.12,1A6,6,0,0,0,25,2a6.43,6.43,0,0,0-1.11-1A2.05,2.05,0,0,1,26.12,1Zm1.47,1.29a13.07,13.07,0,0,0-1.18,1.78,14.15,14.15,0,0,0-1.19-1.78,6,6,0,0,1,1.19-1.12A6.27,6.27,0,0,1,27.59,2.27Z" style="fill:#fdeb92"/><rect x="5.56" width="11.12" height="24.72" style="fill:#fdf8e4"/><polygon points="5.56 24.37 5.56 24.06 5.56 24.06 5.56 24.37 5.56 24.37" style="fill:#fdeb92"/><polygon points="5.56 0.66 5.56 0.35 5.56 0.35 5.56 0.66 5.56 0.66" style="fill:#fdeb92"/><path d="M16.68,2.51V2h0a6.43,6.43,0,0,0-1.11-1A2.3,2.3,0,0,1,16.68.66V.35a2.62,2.62,0,0,0-1.39.43A2.67,2.67,0,0,0,13.9.35a2.62,2.62,0,0,0-1.39.43A2.67,2.67,0,0,0,11.12.35,2.62,2.62,0,0,0,9.73.78,2.67,2.67,0,0,0,8.34.35H8.29A3.25,3.25,0,0,0,6.86.74,2.5,2.5,0,0,0,5.56.35V.66a2.32,2.32,0,0,1,1,.26A3.61,3.61,0,0,0,5.56,2v.54A14.69,14.69,0,0,1,6.77,4.37l-.35.7L5.56,6.72v.67L6.77,9.71,5.56,12v.66L6.77,15,5.56,17.33V18l.87,1.65s.14.31.34.69A14.1,14.1,0,0,1,5.56,22.2v.5a4.43,4.43,0,0,0,.75.81l.34.23a2.23,2.23,0,0,1-1.09.32v.31A2.69,2.69,0,0,0,7,23.93a2.75,2.75,0,0,0,1.39.44h0A2.67,2.67,0,0,0,9.75,24a2.66,2.66,0,0,0,1.37.42,2.67,2.67,0,0,0,1.39-.43,2.62,2.62,0,0,0,1.39.43,2.67,2.67,0,0,0,1.39-.43,2.62,2.62,0,0,0,1.39.43v-.31a2.3,2.3,0,0,1-1.11-.32,6.9,6.9,0,0,0,1.11-1h0V22.2h0a13.54,13.54,0,0,1-1.22-1.86c.21-.38.33-.65.35-.7L16.68,18h0v-.67h0L15.46,15l1.22-2.32h0V12h0L15.46,9.71l1.22-2.32h0V6.72h0l-.87-1.65c0-.05-.14-.31-.35-.7a14.18,14.18,0,0,1,1.22-1.86ZM15.29,9.37,14.07,7.05l1-1.84a4.74,4.74,0,0,1,.25-.5c.15.29.24.48.24.49l1,1.85ZM9.73,14.68,8.51,12.36,9.73,10l1.21,2.32Zm1.39-2L12.33,15l-1.21,2.32L9.9,15Zm-1.22-3,1.22-2.32,1.21,2.32L11.12,12Zm2.61.33,1.21,2.32-1.21,2.32-1.22-2.32Zm.17-.33L13.9,7.39l1.21,2.32L13.9,12Zm1.22,3L15.11,15,13.9,17.33,12.68,15Zm.86,7s.15.31.35.69A13.48,13.48,0,0,1,13.9,22.2a15,15,0,0,1-1.21-1.84c.21-.4.33-.67.35-.72L13.9,18ZM12.51,20l-.25-.5-1-1.86,1.22-2.32,1.21,2.32-1,1.85s-.1.21-.25.51Zm-.17.34a12.94,12.94,0,0,1-1.2,1.87,13.32,13.32,0,0,1-1.23-1.89c.2-.38.33-.65.35-.7L11.12,18,12,19.65S12.13,20,12.34,20.36ZM9.73,20l-.25-.49-1-1.86,1.22-2.31,1.21,2.31-1,1.85s-.1.2-.25.5Zm-.18.33A13.48,13.48,0,0,1,8.34,22.2a12.9,12.9,0,0,1-1.21-1.86c.2-.38.33-.65.35-.7L8.34,18l.87,1.65S9.35,20,9.55,20.34Zm-1.21-3L7.12,15l1.22-2.32L9.55,15Zm0-5.3L7.12,9.71,8.34,7.39,9.55,9.71Zm0-5.31L7.47,5.07s-.14-.31-.34-.7A14.1,14.1,0,0,1,8.34,2.51,13.58,13.58,0,0,1,9.55,4.38c-.2.38-.33.65-.35.69Zm1.39-2c.15.29.24.48.24.49l1,1.85L9.73,9.37,8.51,7.05l1-1.84A4.74,4.74,0,0,1,9.73,4.71Zm.18-.33a13.58,13.58,0,0,1,1.21-1.87,14.1,14.1,0,0,1,1.21,1.86l-.35.7-.86,1.65-.87-1.65C10.23,5,10.11,4.76,9.91,4.38Zm2.6.33c.15.29.24.48.24.49l1,1.85L12.51,9.37,11.29,7.05l1-1.84A4.74,4.74,0,0,1,12.51,4.71Zm.18-.34A13.16,13.16,0,0,1,13.9,2.51a14.1,14.1,0,0,1,1.21,1.86c-.21.39-.33.66-.35.7L13.9,6.72,13,5.07C13,5,12.89,4.76,12.69,4.37Zm2.6,10.31-1.22-2.32L15.29,10l1.21,2.32Zm0,5.33c-.16-.29-.24-.48-.25-.49l-1-1.86,1.22-2.32,1.21,2.32-1,1.85S15.44,19.72,15.29,20ZM14.1,22.45a14.15,14.15,0,0,0,1.19-1.78,13.07,13.07,0,0,0,1.18,1.78,5.91,5.91,0,0,1-1.18,1.11A6,6,0,0,1,14.1,22.45Zm-1.3,1.29a7.28,7.28,0,0,0,1.1-1,6.45,6.45,0,0,0,1.1,1,2.05,2.05,0,0,1-2.2,0Zm-1.45-1.26a12.52,12.52,0,0,0,1.17-1.79,13.78,13.78,0,0,0,1.17,1.76,5.91,5.91,0,0,1-1.18,1.11A5.93,5.93,0,0,1,11.35,22.48Zm-1.3,1.27a6.63,6.63,0,0,0,1.1-1,6.43,6.43,0,0,0,1.07,1,2.23,2.23,0,0,1-1.1.32A2.22,2.22,0,0,1,10.05,23.75Zm-.3-.17a6.17,6.17,0,0,1-1.21-1.13,14.15,14.15,0,0,0,1.19-1.78,13.59,13.59,0,0,0,1.21,1.81,5.66,5.66,0,0,1-1.19,1.1Zm-2.51.16a6.84,6.84,0,0,0,1.1-1,6.25,6.25,0,0,0,1.12,1.06,2.44,2.44,0,0,1-1.12.31A2.46,2.46,0,0,1,7.24,23.74ZM7,20.67a14.08,14.08,0,0,0,1.18,1.78A6.27,6.27,0,0,1,7,23.57a5.09,5.09,0,0,1-.45-.31,4,4,0,0,1-.74-.8A15,15,0,0,0,7,20.67Zm0-5.33,1.21,2.32-1,1.85s-.1.21-.25.5l-.25-.49-1-1.86ZM7,10l1.21,2.32L7,14.68,5.73,12.36ZM7,4.71c.15.29.24.48.24.49l1,1.85L7,9.37,5.73,7.05l1-1.84A4.74,4.74,0,0,1,7,4.71ZM8.13,2.27A14.08,14.08,0,0,0,7,4.05a13.41,13.41,0,0,0-1.2-1.8A3.33,3.33,0,0,1,6.86,1.09,5.94,5.94,0,0,1,8.13,2.27ZM9.44,1a6.39,6.39,0,0,0-1.1,1A6.72,6.72,0,0,0,7.17.93,2.9,2.9,0,0,1,8.33.66,2.3,2.3,0,0,1,9.44,1Zm1.47,1.29A14.08,14.08,0,0,0,9.73,4.05,14.15,14.15,0,0,0,8.54,2.27,6,6,0,0,1,9.73,1.16,5.91,5.91,0,0,1,10.91,2.27ZM12.22,1a6,6,0,0,0-1.1,1A6.75,6.75,0,0,0,10,1a2.05,2.05,0,0,1,2.2,0Zm1.47,1.29a14.08,14.08,0,0,0-1.18,1.78,14.15,14.15,0,0,0-1.19-1.78,6.32,6.32,0,0,1,1.19-1.12,6.27,6.27,0,0,1,1.18,1.12ZM15,1a6,6,0,0,0-1.1,1,6.75,6.75,0,0,0-1.1-1A2.05,2.05,0,0,1,15,1Zm1.47,1.29a13.07,13.07,0,0,0-1.18,1.78A14.15,14.15,0,0,0,14.1,2.27a6.32,6.32,0,0,1,1.19-1.12,6.27,6.27,0,0,1,1.18,1.12Z" style="fill:#fdeb92"/><rect x="-5.56" width="11.12" height="24.72" style="fill:#fdf8e4"/><path d="M5.56,2.51V2h0a6.75,6.75,0,0,0-1.1-1A2.23,2.23,0,0,1,5.56.66V.35A2.62,2.62,0,0,0,4.17.78,2.67,2.67,0,0,0,2.78.35,2.65,2.65,0,0,0,1.39.78,2.65,2.65,0,0,0,0,.35,2.65,2.65,0,0,0-1.39.78,2.65,2.65,0,0,0-2.78.35h-.05A3.18,3.18,0,0,0-4.25.74,2.57,2.57,0,0,0-5.56.35V.66a2.32,2.32,0,0,1,1,.26A3.74,3.74,0,0,0-5.56,2v.54A14.69,14.69,0,0,1-4.35,4.37l-.35.7-.86,1.65v.67l1.22,2.32L-5.56,12v.66L-4.34,15l-1.22,2.32V18l.87,1.65s.14.31.34.69A14.1,14.1,0,0,1-5.56,22.2v.5a4.48,4.48,0,0,0,.76.81,3.29,3.29,0,0,0,.33.23,2.2,2.2,0,0,1-1.09.32v.31a2.69,2.69,0,0,0,1.4-.44,2.78,2.78,0,0,0,1.39.44h0A2.73,2.73,0,0,0-1.36,24,2.62,2.62,0,0,0,0,24.37a2.65,2.65,0,0,0,1.39-.43,2.65,2.65,0,0,0,1.39.43,2.67,2.67,0,0,0,1.39-.43,2.62,2.62,0,0,0,1.39.43v-.31a2.23,2.23,0,0,1-1.1-.32,7.28,7.28,0,0,0,1.1-1h0V22.2h0a13.48,13.48,0,0,1-1.21-1.86c.2-.38.33-.65.35-.7L5.56,18h0v-.67h0L4.34,15l1.22-2.32h0V12h0L4.34,9.71,5.56,7.39h0V6.72h0L4.69,5.07c0-.05-.14-.31-.34-.7A14.1,14.1,0,0,1,5.56,2.51ZM4.17,9.37,3,7.05l1-1.84a4.74,4.74,0,0,1,.25-.5c.15.29.24.48.24.49l1,1.85Zm-5.56,5.31-1.22-2.32L-1.39,10l1.22,2.32Zm1.39-2L1.22,15,0,17.33-1.22,15Zm-1.22-3L0,7.39,1.22,9.71,0,12ZM1.39,10l1.22,2.32L1.39,14.68.17,12.36Zm.17-.33L2.78,7.39,4,9.71,2.78,12Zm1.22,3L4,15,2.78,17.33,1.56,15Zm.87,7s.14.31.34.69A13.48,13.48,0,0,1,2.78,22.2a13.82,13.82,0,0,1-1.2-1.84c.2-.4.32-.67.34-.72L2.78,18ZM1.4,20l-.26-.5-1-1.86,1.22-2.32,1.22,2.32-1,1.85S1.55,19.72,1.4,20Zm-.18.34A11.44,11.44,0,0,1,0,22.23a13.32,13.32,0,0,1-1.23-1.89c.2-.38.33-.65.35-.7L0,18l.87,1.65S1,20,1.22,20.36ZM-1.39,20c-.15-.29-.24-.48-.24-.49l-1-1.86,1.22-2.31,1.22,2.31-1,1.85S-1.24,19.71-1.39,20Zm-.18.33A13.48,13.48,0,0,1-2.78,22.2,12.9,12.9,0,0,1-4,20.34c.2-.38.33-.65.35-.7L-2.78,18l.87,1.65S-1.77,20-1.57,20.34Zm-1.21-3L-4,15l1.21-2.32L-1.56,15Zm0-5.3L-4,9.71l1.22-2.32,1.22,2.32Zm0-5.31-.87-1.65s-.14-.31-.34-.7A14.1,14.1,0,0,1-2.78,2.51,13.58,13.58,0,0,1-1.57,4.38c-.2.38-.33.65-.35.69Zm1.39-2,.25.49,1,1.85L-1.39,9.37-2.61,7.05l1-1.84S-1.54,5-1.39,4.71Zm.18-.33A13.58,13.58,0,0,1,0,2.51,14.1,14.1,0,0,1,1.21,4.37c-.2.39-.33.66-.35.7L0,6.72-.87,5.07C-.89,5-1,4.76-1.21,4.38Zm2.6.33c.15.29.24.48.24.49l1,1.85L1.39,9.37.17,7.05l1-1.84S1.24,5,1.39,4.71Zm.18-.34A14.1,14.1,0,0,1,2.78,2.51,14.1,14.1,0,0,1,4,4.37c-.2.39-.33.66-.35.7L2.78,6.72,1.91,5.07C1.89,5,1.77,4.76,1.57,4.37Zm2.6,10.31L3,12.36,4.17,10l1.21,2.32Zm0,5.33-.25-.49L3,17.66l1.22-2.32,1.21,2.32-1,1.85S4.32,19.72,4.17,20ZM3,22.45a13.14,13.14,0,0,0,1.19-1.78,14.08,14.08,0,0,0,1.18,1.78,5.91,5.91,0,0,1-1.18,1.11A6.25,6.25,0,0,1,3,22.45Zm-1.3,1.29a7.28,7.28,0,0,0,1.1-1,6.45,6.45,0,0,0,1.1,1,2.23,2.23,0,0,1-1.1.32A2.23,2.23,0,0,1,1.68,23.74ZM.23,22.48A12.52,12.52,0,0,0,1.4,20.69a13.86,13.86,0,0,0,1.18,1.76,6.25,6.25,0,0,1-1.19,1.11A5.93,5.93,0,0,1,.23,22.48Zm-1.3,1.28a7.14,7.14,0,0,0,1.1-1,7.31,7.31,0,0,0,1.07,1,2.23,2.23,0,0,1-1.1.32,2.22,2.22,0,0,1-1.07-.31Zm-.3-.18a6.17,6.17,0,0,1-1.21-1.13,13.14,13.14,0,0,0,1.19-1.78A13.59,13.59,0,0,0-.18,22.48a5.66,5.66,0,0,1-1.19,1.1Zm-2.51.16a6.45,6.45,0,0,0,1.1-1,6.61,6.61,0,0,0,1.12,1.06,2.44,2.44,0,0,1-1.12.31A2.5,2.5,0,0,1-3.88,23.74Zm-.29-3.07A13.14,13.14,0,0,0-3,22.45a6.64,6.64,0,0,1-1.19,1.12c-.16-.1-.3-.2-.45-.31a4,4,0,0,1-.74-.8A15,15,0,0,0-4.17,20.67Zm0-5.33,1.22,2.32-1,1.85a4.74,4.74,0,0,1-.25.5c-.15-.29-.24-.48-.24-.49l-1-1.86Zm0-5.3,1.22,2.32-1.22,2.32-1.21-2.32Zm0-5.33.25.49,1,1.85L-4.17,9.37-5.38,7.05l1-1.84S-4.32,5-4.17,4.71ZM-3,2.27A13.14,13.14,0,0,0-4.17,4.05a13.41,13.41,0,0,0-1.2-1.8A3.33,3.33,0,0,1-4.26,1.09,6.24,6.24,0,0,1-3,2.27ZM-1.68,1a6.78,6.78,0,0,0-1.1,1A6.72,6.72,0,0,0-3.95.93,2.9,2.9,0,0,1-2.79.66,2.27,2.27,0,0,1-1.68,1ZM-.2,2.27A13.14,13.14,0,0,0-1.39,4.05,13.14,13.14,0,0,0-2.58,2.27,6.25,6.25,0,0,1-1.39,1.16,6.25,6.25,0,0,1-.2,2.27ZM1.1,1A6.75,6.75,0,0,0,0,2,6.75,6.75,0,0,0-1.1,1,2.23,2.23,0,0,1,0,.66,2.23,2.23,0,0,1,1.1,1ZM2.58,2.27A13.14,13.14,0,0,0,1.39,4.05,13.14,13.14,0,0,0,.2,2.27,6.64,6.64,0,0,1,1.39,1.15,6.64,6.64,0,0,1,2.58,2.27ZM3.88,1a6.37,6.37,0,0,0-1.1,1,6.75,6.75,0,0,0-1.1-1A2.23,2.23,0,0,1,2.78.66,2.23,2.23,0,0,1,3.88,1ZM5.35,2.27A14.08,14.08,0,0,0,4.17,4.05,13.14,13.14,0,0,0,3,2.27,6.64,6.64,0,0,1,4.17,1.15,6.27,6.27,0,0,1,5.35,2.27Z" style="fill:#fdeb92"/></pattern></defs><title>savings-score</title><g style="clip-path:url(#clip-path)"><circle cx="310.03" cy="310" r="383.71" style="fill:url(#Curved-Yellow-wBG)"/><circle cx="51.7" cy="371.29" r="20.26" style="fill:#fb0"/><polygon points="373.18 28.2 383.19 58.28 411.97 71.57 386.45 90.38 382.71 121.87 356.94 103.41 325.84 109.58 335.42 79.36 319.94 51.7 351.65 51.48 373.18 28.2" style="fill:#fb0"/><rect x="521.36" y="161.02" width="26.1" height="56.09" transform="translate(44.02 473.42) rotate(-49.59)" style="fill:#fb0"/><rect x="385.57" y="318.48" width="12.49" height="26.85" transform="translate(-81.87 530.15) rotate(-62.98)" style="fill:#fb0"/><circle cx="133.95" cy="124.72" r="14.92" style="fill:#fb0"/><polygon points="255.25 28.2 253.55 71.16 224.23 59.59 255.25 28.2 255.25 28.2" style="fill:#fb0"/><polygon points="377.92 507.06 398.7 518.72 385.61 530.28 377.92 507.06 377.92 507.06" style="fill:#fb0"/><path d="M553.6,340.74a37.52,37.52,0,0,1-9.8-1.7,29,29,0,0,0-5.82-1.21l.35-14.21a39.06,39.06,0,0,1,9.22,1.71c2.8.77,6.27,1.72,7.08.91s-.14-4.29-.9-7.09c-1.55-5.67-3.9-14.24,2.75-20.88s15.21-4.3,20.88-2.75c1.22.33,2.38.65,3.44.88l-3,13.89c-1.45-.31-2.85-.69-4.21-1.07-2.79-.76-6.27-1.71-7.08-.9s.14,4.29.91,7.08c1.55,5.68,3.89,14.24-2.76,20.89A15,15,0,0,1,553.6,340.74Z" style="fill:#fb0"/><path d="M435.18,308.77c-5.54-.3-11.6,18.39-11.6,18.39l10.6.56,10.6.56S440.72,309.06,435.18,308.77Z" style="fill:#0065fd"/><path d="M456.55,132.73a92.25,92.25,0,1,0,73.84,107.55A92.26,92.26,0,0,0,456.55,132.73Zm-24.15,130a39.93,39.93,0,1,1,46.55-32,39.93,39.93,0,0,1-46.55,32Z" style="fill:#0065fd"/><path d="M162.19,333.36c-5.39,1.33-5.75,21-5.75,21l10.3-2.55,10.3-2.54S167.57,332,162.19,333.36Z" style="fill:#0065fd"/><path d="M191.4,300.28h0A17.53,17.53,0,0,1,174.85,287L146.5,172.19a8,8,0,0,0-9.69-5.85l-32,7.91a13.64,13.64,0,0,0-8.56,6.45L81.1,207a7.64,7.64,0,0,0,1.21,9.21l3.61,3.64a7.68,7.68,0,0,0,7.27,2l16.34-4,19.85,80.35a17.55,17.55,0,0,1-8.14,19.33,6.91,6.91,0,0,0-3.27,7.61l4,16a8.91,8.91,0,0,0,10.79,6.51h0l62.21-15.37a8.91,8.91,0,0,0,6.52-10.78l-4.1-16.61C196.22,300.34,191.4,300.28,191.4,300.28Z" style="fill:#0065fd"/><path d="M516,377.76c.51,5.52,19.88,8.81,19.88,8.81l-1-10.57-1-10.56S515.51,372.23,516,377.76Z" style="fill:#0065fd"/><rect x="98.02" y="365.09" width="424.9" height="49.74" rx="10.54" transform="translate(-21.5 18.13) rotate(-3.23)" style="fill:#0065fd"/><path d="M521.62,452.75c.43,5.53,19.76,9.08,19.76,9.08l-.84-10.58-.84-10.58S521.18,447.22,521.62,452.75Z" style="fill:#0065fd"/><rect x="102.08" y="437.15" width="424.9" height="49.74" rx="10.54" transform="translate(-19.63 14) rotate(-2.47)" style="fill:#0065fd"/><path d="M422.46,189.57c2.51-1.27,2.31-2.87,2.23-3.26l-9.17-25.91L403,166.79l15.56,22.66C418.78,189.75,420,190.84,422.46,189.57Z" style="fill:#0065fd"/><path d="M414.29,195.18c2.31-2.07,1.32-3.7,1.31-3.72L400,168.8l-10.48,9.43,20.9,17.86C410.78,196.31,412.2,197.06,414.29,195.18Z" style="fill:#0065fd"/><rect x="401.36" y="167.6" transform="translate(-20.29 274.34) rotate(-36.87)" style="fill:#0065fd"/><path d="M407.84,202.72c1.7-2.6.32-3.92.31-3.93l-20.9-17.86h0l-7.69,11.81,24.81,11.85C404.74,204.72,406.31,205.08,407.84,202.72Z" style="fill:#0065fd"/><path d="M405,208.23a7,7,0,0,0,5.86-3.57,7.66,7.66,0,0,0,1.39-4.72,8.63,8.63,0,0,0,7-6.32,6.59,6.59,0,0,0,1.09.1,8.38,8.38,0,0,0,3.76-1c4.33-2.21,4.51-5.86,4-7.55L418.79,159l-1.67.59h0l-1.68.59.08.23,9.17,25.91c.08.39.28,2-2.23,3.26s-3.68.18-3.94-.12L403,166.79l-.13-.19-1.47,1h0l-1.46,1,.13.19,15.57,22.66s1,1.65-1.31,3.72c-2.09,1.88-3.51,1.13-3.84.91l-20.9-17.86-.17-.16-2.31,2.7.18.16h0l20.9,17.86s1.39,1.33-.31,3.93c-1.53,2.36-3.1,2-3.47,1.87l-24.81-11.85-.21-.1-1.53,3.21,25.14,12A5.12,5.12,0,0,0,405,208.23Z" style="fill:#6dbff6"/><path d="M411.45,248.83c-1.88-2.08-3.37-1.49-3.72-1.3l-22.66,15.56,9.42,10.48,17.87-20.9C412.58,252.34,413.33,250.92,411.45,248.83Z" style="fill:#0065fd"/><polygon points="395.69 274.9 395.69 274.9 395.69 274.9 395.69 274.9" style="fill:#0065fd"/><path d="M419,255.28c-2.35-1.53-3.65-.57-3.93-.3l-17.87,20.9L409,283.56l11.85-24.8C421,258.38,421.34,256.81,419,255.28Z" style="fill:#0065fd"/><polygon points="410.51 284.54 410.51 284.54 410.51 284.53 410.51 284.54" style="fill:#0065fd"/><path d="M424.12,260.16c.68-1.56.88-5.21-3.19-7.86a7.66,7.66,0,0,0-4.72-1.39,7.66,7.66,0,0,0-2.12-4.45c-3.25-3.62-6.82-2.85-8.31-1.9l-22.92,15.73,2,2.93.19-.13,22.66-15.56c.35-.19,1.84-.78,3.72,1.3s1.13,3.51.91,3.84l-17.87,20.9-.15.18,1.35,1.15h0l1.35,1.15.15-.17L415.06,255c.28-.27,1.58-1.23,3.93.3s2,3.1,1.87,3.48L409,283.56l-.1.21,1.6.76h0l1.61.77Z" style="fill:#6dbff6"/><path d="M456.93,257.28c-2.51,1.28-2.31,2.88-2.23,3.26l9.17,25.92,12.56-6.39-15.56-22.66C460.61,257.11,459.43,256,456.93,257.28Z" style="fill:#0065fd"/><path d="M465.1,251.67c-2.3,2.08-1.32,3.7-1.31,3.72l15.57,22.66,10.48-9.42-20.9-17.86C468.62,250.55,467.19,249.79,465.1,251.67Z" style="fill:#0065fd"/><path d="M471.15,248c-1.34-1.06-4.81-2.2-8.42,1.05a7.61,7.61,0,0,0-2.57,4.2,7.62,7.62,0,0,0-4.84.89c-4.34,2.2-4.52,5.86-4,7.54l9.27,26.2,3.35-1.18-.08-.22-9.17-25.92c-.08-.38-.28-2,2.23-3.26s3.68-.17,3.94.13l15.56,22.66.13.19,2.93-2-.13-.2-15.57-22.66s-1-1.64,1.31-3.72c2.09-1.88,3.52-1.12,3.84-.9l20.9,17.86.17.15,1.16-1.35h0l1.15-1.35Z" style="fill:#6dbff6"/><path d="M473.55,206.2c1.28,2.5,2.87,2.31,3.26,2.22l25.92-9.17-6.4-12.56-22.66,15.56C473.37,202.51,472.28,203.69,473.55,206.2Z" style="fill:#0065fd"/><polygon points="503.54 200.85 503.54 200.85 503.54 200.85 503.54 200.85" style="fill:#0065fd"/><polygon points="495.52 185.1 495.52 185.1 495.52 185.09 495.52 185.1" style="fill:#0065fd"/><path d="M503.54,200.85l-.59-1.67-.22.07-25.92,9.17c-.39.09-2,.28-3.26-2.23s-.18-3.68.12-3.94l22.66-15.56.2-.13-1-1.46h0l-1-1.47-.2.13-22.66,15.56c-.35.19-1.84.79-3.72-1.3s-1.13-3.51-.91-3.84l17.87-20.89.15-.18L483.7,172h0l-1.35-1.15-.15.18-17.87,20.9s-1.33,1.39-3.93-.3c-2.35-1.54-2-3.11-1.87-3.48l11.85-24.81.1-.21-1.6-.76h0l-1.61-.77-12,25.14c-.68,1.56-.88,5.22,3.19,7.86a7.93,7.93,0,0,0,4.31,1.41l.41,0a8.61,8.61,0,0,0,6.32,7,7.66,7.66,0,0,0,.89,4.85c1.68,3.3,4.21,4.19,6.06,4.19a5,5,0,0,0,1.48-.21l26.2-9.26-.59-1.68Z" style="fill:#6dbff6"/><path d="M467.94,198c1.88,2.09,3.37,1.49,3.72,1.3l22.66-15.56-9.42-10.47L467,194.18C466.81,194.51,466.06,195.93,467.94,198Z" style="fill:#0065fd"/><path d="M460.4,191.58c2.6,1.69,3.92.31,3.93.3L482.2,171l-11.82-7.69L458.53,188.1C458.4,188.47,458.05,190,460.4,191.58Z" style="fill:#0065fd"/><polygon points="468.88 162.32 468.88 162.32 468.88 162.32 468.88 162.32" style="fill:#0065fd"/><rect x="483.7" y="171.95" transform="translate(13.62 378.25) rotate(-43.26)" style="fill:#0065fd"/><path d="M107.14,219.75c1.82,2.13,3.34,1.57,3.69,1.4L127,210.66l-7.39-9.5-13.29,14.72C106.11,216.2,105.32,217.61,107.14,219.75Z" style="fill:#0065fd"/><path d="M109.92,224.88a5.53,5.53,0,0,0,2.78-.71l16.39-10.61-1-1.49h0l-1-1.49-.13.08-16.19,10.49c-.35.17-1.87.73-3.69-1.4s-1-3.55-.8-3.87l13.29-14.72.21-.23-2.63-2.38-13.59,15c-1.1,1.31-2.33,4.75.82,8.45A7.13,7.13,0,0,0,109.92,224.88Z" style="fill:#6dbff6"/><path d="M129.11,307H129c-.29,0-2,.14-2.59,3-.67,3,1.08,3.78,1.1,3.79l18,6.54,2.87-13.49Z" style="fill:#0065fd"/><path d="M126.41,310c.62-2.83,2.3-3,2.59-3h.11l19.32-.19h.4l0-3.55-19.68.2c-1.73-.1-5.14,1.07-6.17,5.76s1.66,7.2,3.3,7.86l18.34,6.65,1.21-3.34-.23-.08-18-6.54S125.74,313,126.41,310Z" style="fill:#6dbff6"/><path d="M179.86,292.34c-2.25-2.14-3.79-1-3.81-1l-9.93,8,7.47,7.16,7.5-10.44C181.21,295.85,182,294.34,179.86,292.34Z" style="fill:#0065fd"/><path d="M173.87,288.52l-10.15,8.19,2.23,2.77.17-.15,9.93-8s1.56-1.12,3.81,1c2.1,2,1.35,3.51,1.23,3.71l-7.5,10.44-.15.2,2.89,2.08L184,298.09c1-1.41,1.82-5-1.7-8.32S175.29,287.46,173.87,288.52Z" style="fill:#6dbff6"/><path d="M519.83,353.28c-2.07-1.91-3.5-1.17-3.83-.95l-8.91,7.43,7.49,6.49,6.5-9.23C521.27,356.67,521.89,355.18,519.83,353.28Z" style="fill:#0065fd"/><path d="M516,352.33c.33-.22,1.76-1,3.83.95s1.44,3.39,1.25,3.74l-6.5,9.23-.1.14,2.9,2.05,6.69-9.49c.92-1.43,1.74-5-1.84-8.29s-7.06-2.19-8.45-1.11l-9.19,7.66,2.28,2.73.22-.18Z" style="fill:#6dbff6"/><path d="M523.37,401.83c1.55-2.35.59-3.64.32-3.93l-8.77-7.59-5.2,8.45,10.17,4.92C520.26,403.81,521.83,404.18,523.37,401.83Z" style="fill:#0065fd"/><polygon points="515.86 388.78 515.86 388.78 515.86 388.78 515.86 388.78" style="fill:#0065fd"/><path d="M520.5,407.32a7,7,0,0,0,5.84-3.54c2.67-4.06,1-7.32-.27-8.52L517,387.44l-1.16,1.34h0l-1.16,1.34.22.19,8.77,7.59c.27.29,1.23,1.58-.32,3.93s-3.11,2-3.48,1.85l-10.17-4.92-.16-.08-1.55,3.2,10.45,5.05A5.11,5.11,0,0,0,520.5,407.32Z" style="fill:#6dbff6"/><polygon points="113.37 420.86 113.37 420.85 113.37 420.86 113.37 420.86" style="fill:#0065fd"/><path d="M99.27,426.15c2.07,1.91,3.5,1.17,3.83,1l8.91-7.43-7.49-6.5L98,422.42C97.82,422.76,97.21,424.25,99.27,426.15Z" style="fill:#0065fd"/><path d="M101.92,431a5.62,5.62,0,0,0,3.4-1.08l9.19-7.66-1.14-1.37h0l-1.14-1.36-.22.19-8.91,7.43c-.33.21-1.76.95-3.83-1s-1.45-3.39-1.26-3.73l6.51-9.24.1-.14-2.9-2.05L95,420.48c-.93,1.43-1.74,5,1.84,8.29A7.36,7.36,0,0,0,101.92,431Z" style="fill:#6dbff6"/><path d="M95.72,377.6c-1.54,2.35-.58,3.64-.31,3.94l8.77,7.58,5.19-8.44-10.16-4.92C98.84,375.62,97.27,375.26,95.72,377.6Z" style="fill:#0065fd"/><path d="M104.4,389.31l-.22-.19-8.77-7.58c-.27-.3-1.23-1.59.31-3.94s3.12-2,3.49-1.84l10.16,4.92.17.07,1.54-3.19-10.45-5.06c-1.55-.69-5.2-.91-7.87,3.15s-1,7.33.27,8.53l9,7.82Z" style="fill:#6dbff6"/><path d="M269.27,365.66a3.84,3.84,0,0,0-3.62,4l.45,7.86-.9.05,8.56-.48-.44-7.87A3.84,3.84,0,0,0,269.27,365.66Z" style="fill:#0065fd"/><path d="M266.1,377.57l-.45-7.86a3.84,3.84,0,0,1,7.67-.44l.44,7.87h0l2.08-.12,1.47-.08-.44-7.87a3.84,3.84,0,0,1,7.67-.43l.44,7.86h0l3.55-.2-.45-7.86a7.39,7.39,0,0,0-12.89-4.51c-.13.15-.25.3-.37.46a7.38,7.38,0,0,0-12.71,5.52l.44,7.86,2.65-.15Z" style="fill:#6dbff6"/><path d="M280.49,365a3.84,3.84,0,0,0-3.62,4.05l.44,7.87-1.47.08,9.14-.52-.44-7.86A3.84,3.84,0,0,0,280.49,365Z" style="fill:#0065fd"/><path d="M309.14,416.12a3.85,3.85,0,0,0,5.43-.31,3.91,3.91,0,0,0,1-2.77l-.45-7.87h.32l-8,.45.45,7.86A3.8,3.8,0,0,0,309.14,416.12Z" style="fill:#0065fd"/><path d="M318.64,405l-3.23.19h-.32l.45,7.87a3.84,3.84,0,1,1-7.67.43l-.45-7.86h-.08l-1.77.1-1.78.1.45,7.86a3.84,3.84,0,0,1-7.67.44h0l-.44-7.87h0l-.3,0-1.48.09-1.77.1.44,7.86a7.4,7.4,0,0,0,7.38,7h.42a7.34,7.34,0,0,0,5.1-2.45l.4-.5.46.45a7.36,7.36,0,0,0,4.91,1.88l.43,0a7.38,7.38,0,0,0,7-7.79h0Z" style="fill:#6dbff6"/><path d="M464,408.85a3.85,3.85,0,0,0,3.62-4.06l-.44-7.86,1.77-.1h0l-9.44.54.44,7.86A3.86,3.86,0,0,0,464,408.85Z" style="fill:#0065fd"/><polygon points="457.69 397.47 457.69 397.47 458.84 397.4 457.69 397.47" style="fill:#0065fd"/><path d="M470.67,396.73l-1.77.1-1.77.1.44,7.86a3.84,3.84,0,1,1-7.67.44l-.44-7.86h0l-.62,0-1.15.07-1.78.1.45,7.86a7.39,7.39,0,0,0,7.37,7h.42a7.4,7.4,0,0,0,7-7.8Z" style="fill:#6dbff6"/><path d="M300.62,417.73a3.85,3.85,0,0,0,3.62-4.06l-.45-7.86,1.78-.1h0l-9.44.53.44,7.87A3.85,3.85,0,0,0,300.62,417.73Z" style="fill:#0065fd"/><polygon points="294.35 406.35 294.35 406.35 295.83 406.26 294.35 406.35" style="fill:#0065fd"/><polygon points="510.2 433.24 510.2 433.24 510.2 433.24 510.2 433.24" style="fill:#0065fd"/><path d="M524.36,428.13c-2-1.93-3.48-1.21-3.81-1l-9,7.31,7.4,6.59,6.63-9.14C525.76,431.54,526.4,430.06,524.36,428.13Z" style="fill:#0065fd"/><path d="M511.54,434.44l9-7.31c.33-.21,1.77-.93,3.81,1s1.4,3.41,1.21,3.76L518.94,441l-.1.15,2.88,2.08,6.81-9.4c.94-1.42,1.8-5-1.73-8.31s-7-2.29-8.44-1.22l-9.28,7.53,1.12,1.38h0l1.12,1.38Z" style="fill:#6dbff6"/><polygon points="519.92 463.58 519.92 463.58 519.92 463.58 519.92 463.58" style="fill:#0065fd"/><path d="M527.26,476.72c1.58-2.32.64-3.63.37-3.92L519,465.1l-5.3,8.37,10.09,5.06C524.13,478.66,525.69,479.05,527.26,476.72Z" style="fill:#0065fd"/><path d="M530.05,470.19l-8.95-7.94-1.18,1.33h0l-1.18,1.33.22.19,8.67,7.7c.27.29,1.21,1.6-.37,3.92s-3.13,1.94-3.51,1.81l-10.09-5.06-.16-.08-1.59,3.18,10.38,5.19a5.05,5.05,0,0,0,2.1.42,7,7,0,0,0,5.82-3.46C532.93,474.69,531.32,471.41,530.05,470.19Z" style="fill:#6dbff6"/><polygon points="106.96 481.32 106.96 481.32 106.96 481.32 106.96 481.32" style="fill:#0065fd"/><path d="M102.88,495.41c2,1.93,3.48,1.22,3.81,1l9-7.31-7.4-6.59-6.63,9.14C101.47,492,100.84,493.48,102.88,495.41Z" style="fill:#0065fd"/><path d="M115.7,489.1l-9,7.31c-.33.22-1.77.93-3.81-1s-1.41-3.41-1.21-3.76l6.63-9.14.1-.14-1.44-1h0l-1.44-1-6.81,9.4c-.94,1.42-1.8,5,1.73,8.31a7.35,7.35,0,0,0,5.1,2.27,5.79,5.79,0,0,0,3.34-1l9.28-7.54-2.24-2.76Z" style="fill:#6dbff6"/><path d="M100,446.82c-1.57,2.32-.63,3.63-.36,3.92l8.67,7.7,5.3-8.37L103.49,445C103.11,444.88,101.55,444.49,100,446.82Z" style="fill:#0065fd"/><polygon points="114.54 448.56 114.54 448.56 114.54 448.56 114.54 448.56" style="fill:#0065fd"/><path d="M108.5,458.64l-.22-.2-8.67-7.7c-.27-.29-1.21-1.6.36-3.92s3.14-1.94,3.52-1.81l10.09,5.06.16.08.8-1.59h0l.79-1.59L105,441.78c-1.55-.71-5.19-1-7.92,3s-1.11,7.31.16,8.53l9,7.94Z" style="fill:#6dbff6"/><path d="M277.67,440.85a3.84,3.84,0,0,0-7.68.33l.34,7.87,8.5-.37-.82,0Z" style="fill:#0065fd"/><path d="M284.89,436.69a3.84,3.84,0,0,0-3.67,4l.34,7.86,7.67-.33-.34-7.87A3.88,3.88,0,0,0,284.89,436.69Z" style="fill:#0065fd"/><path d="M284.73,433.14a7.36,7.36,0,0,0-5.13,2.39,3.94,3.94,0,0,0-.36.45,7.39,7.39,0,0,0-12.8,5.35l.34,7.87,3.55-.15h0l-.34-7.87a3.84,3.84,0,0,1,7.68-.33l.34,7.87.82,0,2.73-.12h0l-.34-7.86a3.84,3.84,0,1,1,7.67-.34l.34,7.87h0l3.55-.15-.34-7.87A7.41,7.41,0,0,0,284.73,433.14Z" style="fill:#6dbff6"/><path d="M421.11,480.7a3.84,3.84,0,1,0,7.67-.34h0l-.34-7.86-9.44.4h0l1.77-.07Z" style="fill:#0065fd"/><polygon points="441.44 471.93 439.99 472 441.44 471.93 441.44 471.93" style="fill:#0065fd"/><path d="M432,472.34l.34,7.87a3.79,3.79,0,0,0,1.24,2.66,3.84,3.84,0,0,0,6.44-3l-.34-7.87-9.45.41-.71,0Z" style="fill:#0065fd"/><path d="M441.44,471.93,440,472h-.32l.34,7.87a3.84,3.84,0,0,1-7.68.33l-.34-7.87-2.48.11-1.07,0h0l.34,7.87a3.84,3.84,0,0,1-3.67,4h0a3.87,3.87,0,0,1-4-3.68l-.34-7.86-1.77.07-1.78.08.34,7.87a7.4,7.4,0,0,0,7.38,7.07h.33a7.31,7.31,0,0,0,5.13-2.38l.37-.45c.13.14.26.28.4.41a7.33,7.33,0,0,0,5,1.95h.33a7.4,7.4,0,0,0,7.07-7.7l-.34-7.87Z" style="fill:#6dbff6"/><path d="M202.07,491a3.84,3.84,0,1,0,7.67-.33l-.34-7.86-8.49.36.82,0Z" style="fill:#0065fd"/><path d="M209.4,482.78h0l.34,7.86a3.84,3.84,0,1,1-7.67.34l-.34-7.87-.82,0-2.73.12.34,7.87a7.39,7.39,0,0,0,7.38,7.07h.32a7.38,7.38,0,0,0,7.07-7.7h0l-.34-7.87Z" style="fill:#6dbff6"/><path d="M349,206.58a91.89,91.89,0,0,0,12.47,65.65A92.14,92.14,0,0,0,370,163,91.63,91.63,0,0,0,349,206.58Z" style="fill:#003687"/><path d="M253.2,290c-5.48-.86-13.43,17.11-13.43,17.11l10.49,1.65,10.48,1.64S258.68,290.81,253.2,290Z" style="fill:#0065fd"/><path d="M292.55,117.05a92.24,92.24,0,1,0,62.39,114.56h0A92.34,92.34,0,0,0,292.55,117.05ZM255.17,243.83a39.93,39.93,0,1,1,49.59-27A39.92,39.92,0,0,1,255.17,243.83Z" style="fill:#0065fd"/><path d="M252.8,170.08c2.62-1,2.6-2.62,2.55-3l-6.45-26.72-13.15,5.07,13.14,24.14C249.12,169.88,250.18,171.09,252.8,170.08Z" style="fill:#0065fd"/><path d="M252.3,139.29l-3.46.83.06.23,6.45,26.72c.05.39.07,2-2.55,3s-3.68-.2-3.91-.52l-13.14-24.14-.12-.21h0l-3.12,1.7.11.21h0l13.14,24.13c.15.37.59,1.92-1.68,3.57s-3.61.76-3.91.51l-19-19.92-.16-.16-1.28,1.22h0l-1.28,1.22.16.17,19,19.92c.23.31,1.06,1.7-.7,3.88s-3.29,1.67-3.65,1.5L209.8,168.83l-.2-.12-.92,1.51h0l-.93,1.52,23.77,14.52a5.39,5.39,0,0,0,2.57.62,7.13,7.13,0,0,0,5.58-3,7.6,7.6,0,0,0,1.87-4.55h.07a8.63,8.63,0,0,0,7.56-5.56A6.7,6.7,0,0,0,251,174a8.64,8.64,0,0,0,3.13-.62c4.53-1.75,5.09-5.37,4.74-7.1Z" style="fill:#6dbff6"/><path d="M244.09,174.82c2.27-1.65,1.83-3.2,1.68-3.57l-13.14-24.13h0l-11.39,8.29,19,19.92C240.48,175.58,241.82,176.48,244.09,174.82Z" style="fill:#0065fd"/><path d="M236.91,181.66c1.76-2.18.93-3.57.7-3.88l-19-19.92-8.86,11,23.46,14.33C233.62,183.33,235.14,183.85,236.91,181.66Z" style="fill:#0065fd"/><polygon points="219.78 156.47 219.78 156.47 219.78 156.47 219.78 156.47" style="fill:#0065fd"/><polygon points="217.4 252.21 217.4 252.21 217.4 252.21 217.4 252.21" style="fill:#0065fd"/><path d="M235.76,227.9c-1.66-2.27-3.21-1.83-3.57-1.68l-24.14,13.15,8.3,11.39,19.91-18.95C236.52,231.51,237.41,230.17,235.76,227.9Z" style="fill:#0065fd"/><path d="M242.59,235.08c-2.41-2-3.86-.71-3.88-.7l-19.91,19h0l11,8.86,14.33-23.45C244.26,238.38,244.78,236.85,242.59,235.08Z" style="fill:#0065fd"/><path d="M244.83,232.32a7.67,7.67,0,0,0-4.56-1.87,7.67,7.67,0,0,0-1.64-4.64c-2.86-3.93-6.5-3.53-8.08-2.74l-24.41,13.29,1.7,3.12.21-.11,24.14-13.15c.36-.15,1.91-.59,3.57,1.68s.76,3.61.5,3.91l-19.91,18.95-.17.16,1.22,1.29h0l1.23,1.29.17-.17h0l19.92-19s1.46-1.25,3.87.7c2.19,1.77,1.67,3.3,1.5,3.66l-14.33,23.45-.12.2,3,1.85,14.53-23.77C248,239,248.61,235.37,244.83,232.32Z" style="fill:#6dbff6"/><path d="M280.12,241c-2.62,1-2.59,2.62-2.54,3L284,270.71l13.15-5.07L284,241.5C283.81,241.18,282.74,240,280.12,241Z" style="fill:#0065fd"/><path d="M280.63,271.77l1.73-.41h0l1.72-.42-.05-.23L277.58,244c-.05-.39-.08-2,2.54-3s3.69.2,3.91.52l13.15,24.14.11.21,3.12-1.7-.11-.21L287.15,239.8s-.83-1.74,1.68-3.56c2.27-1.66,3.61-.76,3.92-.51l18.94,19.92.16.16,1.29-1.22h0l1.29-1.22-19.2-20.19c-1.22-1.19-4.56-2.68-8.49.18a7.65,7.65,0,0,0-3,3.92,7.66,7.66,0,0,0-4.91.38c-4.54,1.75-5.1,5.37-4.74,7.1Z" style="fill:#6dbff6"/><path d="M288.83,236.24c-2.51,1.82-1.69,3.54-1.68,3.56l13.15,24.14,11.39-8.29-18.94-19.92C292.44,235.48,291.1,234.58,288.83,236.24Z" style="fill:#0065fd"/><polygon points="313.14 254.59 313.14 254.59 313.14 254.59 313.14 254.59" style="fill:#0065fd"/><path d="M301.91,191.87c1,2.62,2.62,2.6,3,2.55L331.65,188l-5.07-13.15L302.44,188C302.11,188.19,300.9,189.25,301.91,191.87Z" style="fill:#0065fd"/><path d="M332.29,189.63l-.42-1.72-.22.05-26.72,6.46c-.4.05-2,.07-3-2.55s.2-3.68.53-3.91l24.14-13.15.2-.11-1.7-3.12-.2.11-24.14,13.15c-.37.15-1.92.59-3.57-1.68s-.76-3.61-.51-3.91l19.92-18.95.17-.16-2.45-2.58h0l-.17.17-19.92,19s-1.46,1.25-3.88-.7c-2.18-1.77-1.66-3.3-1.5-3.66l14.33-23.45.13-.2-1.52-.92h0l-1.52-.92-14.52,23.77c-.83,1.48-1.41,5.1,2.37,8.15a7.59,7.59,0,0,0,4.55,1.86,8.61,8.61,0,0,0,5.56,7.63,7.7,7.7,0,0,0,.39,4.92c1.48,3.83,4.29,4.82,6.17,4.82a4.7,4.7,0,0,0,.92-.08l27-6.53-.42-1.72Zm-16.77-30.78Z" style="fill:#6dbff6"/><path d="M297.17,183.16c1.65,2.27,3.2,1.83,3.57,1.68l24.14-13.15-8.3-11.39-19.92,18.95C296.41,179.55,295.51,180.89,297.17,183.16Z" style="fill:#0065fd"/><path d="M290.33,176c2.42,2,3.87.71,3.88.7l19.92-19-11-8.86-14.33,23.45C288.67,172.68,288.15,174.21,290.33,176Z" style="fill:#0065fd"/><rect x="277.39" y="520.45" width="10.05" height="22.58" style="fill:#fb0"/><rect x="260.83" y="532.48" width="10.05" height="22.58" transform="translate(-333.45 628.6) rotate(-72)" style="fill:#fb0"/><rect x="260.89" y="558.21" width="22.58" height="10.05" transform="translate(-343.47 452.4) rotate(-54)" style="fill:#fb0"/><rect x="287.63" y="551.95" width="10.05" height="22.58" transform="matrix(0.81, -0.59, 0.59, 0.81, -275.17, 279.59)" style="fill:#fb0"/><rect x="287.69" y="538.75" width="22.58" height="10.05" transform="translate(-153.39 119) rotate(-18)" style="fill:#fb0"/></g></svg>